<svg xmlns="http://www.w3.org/2000/svg" viewBox="219 104 554 554" role="img">
  <path d="M 603 276 L 589 286 L 568 307 L 561 316 L 560 319 L 561 325 L 567 329 L 572 328 L 584 314 L 603 296 L 616 288 L 630 284 L 631 285 L 641 286 L 654 291 L 692 311 L 713 325 L 727 337 L 731 342 L 734 349 L 734 360 L 729 373 L 719 387 L 705 400 L 690 409 L 683 411 L 676 411 L 670 409 L 661 401 L 653 388 L 644 369 L 634 340 L 631 323 L 629 318 L 626 315 L 619 315 L 615 319 L 614 328 L 617 344 L 627 377 L 634 391 L 634 393 L 644 411 L 657 426 L 670 432 L 685 432 L 695 429 L 707 423 L 717 416 L 730 404 L 740 392 L 747 381 L 752 369 L 754 360 L 754 350 L 752 342 L 745 330 L 735 320 L 714 305 L 683 287 L 656 274 L 640 269 L 627 268 L 626 269 L 616 270 Z&#xA;  &#xA;M 384 274 L 374 270 L 364 269 L 363 268 L 350 269 L 337 273 L 318 282 L 280 304 L 255 322 L 246 332 L 241 341 L 239 348 L 239 360 L 242 372 L 248 384 L 257 397 L 270 411 L 280 419 L 293 427 L 307 432 L 323 432 L 335 426 L 346 414 L 360 389 L 367 371 L 373 349 L 375 333 L 376 332 L 376 320 L 371 315 L 365 315 L 360 320 L 356 343 L 348 368 L 338 390 L 331 401 L 325 407 L 316 411 L 305 410 L 298 407 L 286 399 L 272 385 L 266 377 L 260 365 L 258 353 L 259 352 L 259 347 L 262 341 L 273 330 L 303 310 L 342 289 L 353 285 L 359 285 L 360 284 L 370 286 L 384 293 L 402 308 L 417 326 L 420 328 L 424 329 L 430 326 L 432 320 L 431 317 L 421 304 L 402 286 Z&#xA;  " fill="#111111" fill-rule="evenodd"></path>
  
  <circle cx="414" cy="414" r="16" fill="#111111"></circle>
  <circle cx="580" cy="414" r="16" fill="#111111"></circle>
  <path d="M 441 458 L 441 465 L 445 472 L 454 480 L 466 484 L 481 483 L 492 478 L 495 475 L 500 479 L 507 482 L 515 484 L 525 484 L 539 479 L 545 474 L 551 464 L 551 459 L 547 454 L 540 454 L 536 462 L 530 468 L 521 471 L 510 469 L 502 461 L 502 454 L 509 448 L 510 440 L 506 434 L 499 431 L 489 432 L 485 434 L 482 438 L 481 442 L 482 446 L 490 455 L 490 461 L 486 466 L 479 470 L 470 471 L 462 468 L 457 464 L 454 460 L 453 456 L 450 454 L 445 454 Z&#xA;  " fill="#111111" fill-rule="evenodd"></path>

</svg>