<svg xmlns="http://www.w3.org/2000/svg" viewBox="0 0 1024 1024" role="img" aria-label="Kkori logo">
  <path d="M 685 470 L 681 465 L 676 463 L 671 464 L 668 466 L 663 478 L 660 493 L 658 496 L 656 504 L 644 527 L 635 539 L 623 552 L 606 566 L 592 575 L 571 585 L 559 589 L 530 595 L 521 595 L 520 596 L 478 596 L 477 595 L 460 594 L 451 592 L 438 592 L 437 591 L 404 591 L 403 592 L 396 592 L 380 595 L 358 602 L 341 610 L 327 619 L 317 627 L 299 645 L 287 661 L 275 683 L 272 692 L 274 697 L 278 700 L 284 700 L 304 688 L 321 680 L 336 675 L 357 671 L 388 671 L 389 672 L 407 674 L 440 683 L 473 694 L 506 702 L 534 705 L 535 706 L 576 706 L 577 705 L 585 705 L 617 698 L 642 688 L 659 677 L 663 672 L 663 667 L 660 665 L 646 665 L 645 664 L 657 658 L 671 648 L 687 632 L 694 622 L 699 611 L 699 605 L 695 601 L 690 601 L 682 605 L 680 604 L 685 598 L 694 580 L 699 555 L 699 527 L 698 526 L 697 511 L 692 488 Z
  M 678 509 L 680 527 L 681 528 L 681 547 L 680 548 L 680 556 L 678 566 L 675 575 L 667 590 L 660 599 L 641 616 L 632 621 L 631 624 L 633 626 L 639 628 L 652 628 L 664 625 L 666 626 L 654 636 L 637 645 L 611 654 L 592 657 L 584 660 L 585 664 L 593 669 L 605 672 L 618 672 L 625 674 L 616 679 L 597 685 L 582 688 L 576 688 L 575 689 L 535 690 L 534 689 L 527 689 L 520 687 L 519 688 L 499 684 L 477 677 L 474 677 L 456 670 L 453 670 L 427 661 L 405 656 L 390 655 L 389 654 L 358 654 L 357 655 L 344 656 L 322 662 L 303 671 L 301 673 L 299 672 L 304 665 L 322 646 L 343 630 L 367 618 L 392 611 L 403 610 L 404 609 L 413 609 L 414 608 L 431 608 L 432 609 L 444 609 L 445 610 L 454 610 L 455 611 L 481 613 L 482 614 L 493 614 L 494 615 L 519 615 L 520 614 L 532 614 L 533 613 L 540 613 L 541 612 L 557 610 L 588 600 L 608 590 L 632 573 L 647 558 L 663 536 L 672 518 L 675 508 L 676 507 Z
  M 603 276 L 589 286 L 568 307 L 561 316 L 560 319 L 561 325 L 567 329 L 572 328 L 584 314 L 603 296 L 616 288 L 630 284 L 631 285 L 641 286 L 654 291 L 692 311 L 713 325 L 727 337 L 731 342 L 734 349 L 734 360 L 729 373 L 719 387 L 705 400 L 690 409 L 683 411 L 676 411 L 670 409 L 661 401 L 653 388 L 644 369 L 634 340 L 631 323 L 629 318 L 626 315 L 619 315 L 615 319 L 614 328 L 617 344 L 627 377 L 634 391 L 634 393 L 644 411 L 657 426 L 670 432 L 685 432 L 695 429 L 707 423 L 717 416 L 730 404 L 740 392 L 747 381 L 752 369 L 754 360 L 754 350 L 752 342 L 745 330 L 735 320 L 714 305 L 683 287 L 656 274 L 640 269 L 627 268 L 626 269 L 616 270 Z
  M 384 274 L 374 270 L 364 269 L 363 268 L 350 269 L 337 273 L 318 282 L 280 304 L 255 322 L 246 332 L 241 341 L 239 348 L 239 360 L 242 372 L 248 384 L 257 397 L 270 411 L 280 419 L 293 427 L 307 432 L 323 432 L 335 426 L 346 414 L 360 389 L 367 371 L 373 349 L 375 333 L 376 332 L 376 320 L 371 315 L 365 315 L 360 320 L 356 343 L 348 368 L 338 390 L 331 401 L 325 407 L 316 411 L 305 410 L 298 407 L 286 399 L 272 385 L 266 377 L 260 365 L 258 353 L 259 352 L 259 347 L 262 341 L 273 330 L 303 310 L 342 289 L 353 285 L 359 285 L 360 284 L 370 286 L 384 293 L 402 308 L 417 326 L 420 328 L 424 329 L 430 326 L 432 320 L 431 317 L 421 304 L 402 286 Z
  M 441 458 L 441 465 L 445 472 L 454 480 L 466 484 L 481 483 L 492 478 L 495 475 L 500 479 L 507 482 L 515 484 L 525 484 L 539 479 L 545 474 L 551 464 L 551 459 L 547 454 L 540 454 L 536 462 L 530 468 L 521 471 L 510 469 L 502 461 L 502 454 L 509 448 L 510 440 L 506 434 L 499 431 L 489 432 L 485 434 L 482 438 L 481 442 L 482 446 L 490 455 L 490 461 L 486 466 L 479 470 L 470 471 L 462 468 L 457 464 L 454 460 L 453 456 L 450 454 L 445 454 Z
  M 744 522 L 738 523 L 735 527 L 736 555 L 735 556 L 734 573 L 728 594 L 722 606 L 723 612 L 730 616 L 735 614 L 738 611 L 743 602 L 748 588 L 752 569 L 753 549 L 752 548 L 751 529 L 749 525 Z
  M 411 393 L 404 395 L 396 402 L 393 408 L 393 413 L 392 414 L 394 423 L 400 431 L 409 435 L 418 435 L 426 431 L 431 426 L 434 419 L 434 409 L 432 404 L 426 397 L 420 394 Z
  M 570 394 L 566 396 L 560 402 L 556 412 L 557 421 L 564 431 L 573 435 L 582 435 L 587 433 L 594 427 L 598 416 L 597 407 L 593 400 L 584 394 L 580 393 Z
  M 788 548 L 783 548 L 778 553 L 776 572 L 767 599 L 768 603 L 771 606 L 777 607 L 782 603 L 787 593 L 792 576 L 794 557 L 792 551 Z
  M 643 665 L 644 664 L 646 665 L 645 666 Z
  M 298 673 L 299 672 L 300 673 L 299 674 Z" fill="#F8F3EC" fill-rule="evenodd"/>
</svg>
