<svg xmlns="http://www.w3.org/2000/svg" viewBox="72 -24.5 786 786" role="img" aria-label="꼬리 심볼 로고">
  <title>꼬리 심볼 로고</title>
  <path d="M 832 427 L 825 428 L 821 432 L 820 435 L 820 454 L 819 455 L 818 465 L 811 485 L 805 496 L 806 501 L 812 506 L 818 506 L 824 501 L 830 490 L 836 473 L 839 458 L 839 452 L 840 451 L 840 435 L 838 431 L 835 428 Z M 784 401 L 776 401 L 773 403 L 770 409 L 770 414 L 771 415 L 770 450 L 763 474 L 753 491 L 753 498 L 758 503 L 761 504 L 767 503 L 776 492 L 782 479 L 788 459 L 788 454 L 790 447 L 790 436 L 791 435 L 791 422 L 790 421 L 790 409 L 788 404 Z M 181 397 L 174 390 L 163 391 L 141 397 L 115 409 L 110 414 L 110 422 L 115 427 L 118 428 L 124 427 L 130 423 L 146 416 L 166 410 L 175 409 L 180 404 Z M 509 396 L 509 401 L 514 407 L 526 409 L 548 416 L 566 425 L 574 425 L 579 419 L 579 412 L 575 407 L 563 401 L 544 394 L 524 389 L 515 389 L 511 392 Z M 478 363 L 471 368 L 469 374 L 470 379 L 474 384 L 478 386 L 484 386 L 491 381 L 493 376 L 492 369 L 487 364 Z M 207 363 L 201 367 L 199 371 L 199 378 L 201 382 L 205 385 L 213 386 L 220 381 L 222 377 L 222 372 L 221 369 L 216 364 Z M 516 360 L 518 366 L 523 370 L 532 370 L 533 369 L 551 368 L 552 367 L 570 367 L 571 368 L 592 369 L 597 365 L 598 356 L 594 351 L 587 349 L 547 348 L 546 349 L 523 351 L 518 355 Z M 90 359 L 92 366 L 99 370 L 109 369 L 110 368 L 121 368 L 122 367 L 138 367 L 139 368 L 150 368 L 158 370 L 167 370 L 173 365 L 174 362 L 173 356 L 169 352 L 155 349 L 147 349 L 146 348 L 116 348 L 115 349 L 99 350 L 94 352 Z M 276 372 L 276 378 L 280 386 L 289 396 L 300 402 L 313 405 L 330 402 L 341 396 L 346 391 L 356 399 L 369 404 L 380 405 L 390 403 L 403 396 L 410 389 L 416 379 L 415 369 L 409 365 L 404 365 L 398 370 L 395 377 L 386 384 L 372 385 L 365 382 L 359 376 L 357 372 L 357 367 L 361 364 L 365 358 L 366 346 L 362 340 L 354 336 L 340 336 L 333 338 L 328 342 L 325 349 L 326 355 L 329 361 L 336 368 L 336 371 L 332 378 L 323 384 L 309 385 L 304 383 L 298 378 L 294 369 L 288 365 L 283 365 L 279 367 Z M 723 329 L 719 323 L 707 311 L 701 307 L 689 302 L 684 302 L 683 301 L 671 302 L 659 307 L 651 314 L 642 329 L 638 345 L 638 372 L 639 373 L 639 386 L 640 387 L 640 418 L 639 419 L 638 431 L 635 441 L 625 461 L 608 485 L 585 508 L 560 525 L 550 530 L 528 538 L 516 540 L 511 542 L 499 543 L 498 544 L 488 544 L 487 545 L 433 544 L 432 543 L 422 543 L 414 541 L 391 539 L 370 535 L 338 532 L 337 531 L 323 531 L 322 530 L 276 531 L 275 532 L 255 534 L 242 538 L 238 538 L 214 546 L 189 558 L 159 579 L 139 599 L 126 617 L 118 635 L 119 643 L 124 647 L 133 646 L 136 643 L 142 628 L 156 609 L 168 597 L 194 578 L 225 563 L 252 555 L 268 552 L 274 552 L 275 551 L 284 551 L 285 550 L 327 550 L 328 551 L 348 552 L 349 553 L 363 554 L 364 555 L 399 559 L 407 561 L 414 561 L 415 562 L 423 562 L 424 563 L 452 564 L 453 565 L 481 565 L 482 564 L 495 564 L 496 563 L 511 562 L 533 557 L 551 551 L 572 541 L 593 527 L 611 511 L 626 494 L 644 467 L 653 448 L 659 422 L 660 398 L 659 397 L 659 380 L 658 379 L 658 363 L 657 362 L 657 353 L 658 352 L 659 340 L 664 329 L 668 325 L 673 322 L 682 321 L 691 324 L 703 335 L 711 349 L 715 361 L 716 371 L 717 372 L 717 380 L 718 381 L 718 418 L 717 419 L 716 435 L 709 466 L 697 499 L 680 531 L 661 557 L 644 575 L 623 593 L 600 608 L 578 618 L 575 622 L 576 631 L 580 635 L 583 636 L 589 635 L 608 626 L 633 610 L 643 602 L 673 573 L 688 554 L 704 529 L 715 507 L 721 492 L 730 464 L 730 460 L 734 446 L 736 428 L 737 427 L 737 416 L 738 415 L 738 381 L 737 380 L 736 365 L 730 343 Z M 445 288 L 438 292 L 432 299 L 428 310 L 429 320 L 433 328 L 439 334 L 448 338 L 460 338 L 469 334 L 476 327 L 480 317 L 480 308 L 477 300 L 469 291 L 460 287 Z M 232 287 L 223 291 L 215 300 L 212 310 L 213 320 L 217 328 L 225 335 L 232 338 L 245 338 L 253 334 L 261 325 L 264 316 L 263 305 L 259 297 L 251 290 L 244 287 Z M 546 90 L 532 95 L 515 104 L 499 114 L 471 135 L 456 148 L 429 175 L 427 178 L 427 186 L 431 191 L 435 193 L 442 192 L 471 163 L 499 140 L 528 121 L 542 114 L 549 112 L 552 119 L 555 135 L 555 144 L 556 145 L 556 186 L 555 187 L 555 198 L 554 199 L 554 206 L 553 207 L 550 228 L 544 250 L 539 263 L 539 269 L 548 293 L 551 306 L 551 311 L 555 317 L 559 319 L 564 319 L 567 318 L 571 314 L 572 311 L 571 299 L 568 287 L 563 274 L 563 271 L 561 268 L 561 265 L 565 255 L 570 235 L 573 214 L 574 213 L 574 207 L 575 206 L 576 188 L 577 187 L 577 144 L 576 143 L 576 133 L 575 132 L 573 115 L 570 104 L 567 98 L 561 92 L 557 90 Z M 151 90 L 137 91 L 129 98 L 124 109 L 119 135 L 119 145 L 118 146 L 119 201 L 120 202 L 122 223 L 126 243 L 128 248 L 130 260 L 132 264 L 132 268 L 123 293 L 120 310 L 122 315 L 128 319 L 134 319 L 138 317 L 141 313 L 146 290 L 154 270 L 154 263 L 148 244 L 144 226 L 142 208 L 141 207 L 141 199 L 140 198 L 140 189 L 139 188 L 140 138 L 144 117 L 147 112 L 155 114 L 169 121 L 204 144 L 227 163 L 255 191 L 259 193 L 266 192 L 271 187 L 272 184 L 271 177 L 268 173 L 249 154 L 221 130 L 184 105 L 165 95 Z" fill="#000000" fill-rule="evenodd"></path>
</svg>