<svg width="1024" height="1024" viewBox="0 0 1024 1024" fill="none" xmlns="http://www.w3.org/2000/svg">

<path d="M766.676 474.201C772.777 473.136 778.821 476.358 781.337 482.018C792.84 507.902 799.175 549.113 791.423 590.853C785.837 620.923 772.821 651.782 748.721 677.455C757.994 673.791 769.896 667.52 785.342 656.882C790.142 653.577 796.521 653.724 801.163 657.247C805.804 660.771 807.661 666.876 805.767 672.387C796.942 698.073 765.473 740.848 702.857 759.55C714.568 759.209 729.837 757.224 749.819 752.38C755.893 750.908 762.184 753.797 765.025 759.365C767.866 764.932 766.513 771.722 761.756 775.776C739.654 794.61 675.491 824.459 591.203 819.477C563.966 817.867 535.713 809.769 507.299 800.714C478.407 791.507 449.225 781.272 418.148 774.091C356.87 759.931 290.108 758.146 214.983 803.554C210.177 806.459 204.075 806.085 199.66 802.616C195.244 799.146 193.437 793.306 195.122 787.95C209.233 743.084 267.172 654.5 387 654.5C422.294 654.5 457.257 656.14 490.09 657.218C523.143 658.303 554.126 658.823 582.439 656.725C639.261 652.514 682.142 637.988 708.377 599.85C731.52 566.204 743.051 540.268 748.92 521.779C754.736 503.454 755.133 492.074 755.535 486.525C755.982 480.348 760.576 475.267 766.676 474.201ZM859.179 550.201C866.524 548.92 873.517 553.835 874.798 561.18C885.987 625.299 865.096 662.217 851.684 682.06C847.509 688.237 839.117 689.86 832.94 685.685C826.763 681.51 825.14 673.118 829.315 666.941C840.236 650.783 857.812 620.901 848.201 565.821C846.919 558.476 851.835 551.483 859.179 550.201ZM919.516 575.647C926.891 574.552 933.758 579.642 934.853 587.017C941.521 631.912 923.032 665.7 911.375 678.205C906.291 683.659 897.748 683.959 892.295 678.875C886.841 673.791 886.541 665.249 891.625 659.795C898.3 652.634 913.478 626.888 908.146 590.984C907.051 583.609 912.142 576.742 919.516 575.647ZM511.5 431C521.717 431 530 439.283 530 449.5C530 455.818 526.832 461.394 522 464.732V477.754C533.672 483.877 543.308 483.861 550.6 481.599C559.24 478.92 565.642 472.764 568.754 467.152C571.431 462.322 577.518 460.577 582.348 463.254C587.178 465.932 588.923 472.019 586.246 476.849C580.857 486.569 570.509 496.364 556.524 500.701C543.367 504.782 527.797 503.785 511.291 494.702C495.173 503.32 479.977 504.34 467.072 500.481C453.068 496.293 442.672 486.623 437.254 476.849C434.576 472.019 436.321 465.932 441.151 463.254C445.981 460.577 452.068 462.322 454.746 467.152C457.828 472.711 464.181 478.741 472.802 481.32C480.103 483.503 489.778 483.431 501.5 477.259V465.067C496.386 461.775 493 456.033 493 449.5C493 439.283 501.282 431 511.5 431ZM646.532 221.505C669.605 205.084 699.955 193.91 732.733 205.822C767.479 218.449 804.358 237.182 832.203 257.845C846.095 268.155 858.28 279.343 866.767 290.951C875.132 302.393 881.057 315.868 879.141 330.065C877.573 341.683 872.115 355.43 864.703 368.644C857.179 382.057 847.09 395.906 835.35 407.695C812.9 430.238 779.038 449.944 745.275 431.87C732.268 424.907 722.16 413.28 714.286 400.373C706.356 387.376 700.153 372.202 695.327 356.902C685.682 326.327 681.005 293.553 679.616 272.52C679.125 265.08 684.757 258.651 692.197 258.159C699.636 257.668 706.066 263.301 706.557 270.741C707.838 290.133 712.22 320.703 721.077 348.779C725.501 362.804 730.911 375.782 737.335 386.311C743.814 396.93 750.804 404.204 758.017 408.066C774.806 417.053 795.499 409.447 816.218 388.642C826.063 378.756 834.712 366.922 841.155 355.435C847.71 343.749 851.449 333.378 852.383 326.453C852.97 322.108 851.388 315.662 844.971 306.886C838.678 298.277 828.809 288.949 816.112 279.527C790.777 260.726 756.334 243.126 723.511 231.198C702.234 223.465 681.281 229.913 662.187 243.502C643.019 257.144 627.696 276.745 619.648 290.482C615.879 296.915 607.609 299.075 601.175 295.306C594.743 291.537 592.582 283.266 596.351 276.833C605.821 260.669 623.532 237.874 646.532 221.505ZM290.394 205.81C323.137 193.926 353.457 205.073 376.509 221.458C399.488 237.791 417.183 260.538 426.645 276.669C430.417 283.1 428.261 291.371 421.831 295.144C415.4 298.916 407.129 296.761 403.356 290.33C395.319 276.628 380.013 257.075 360.867 243.466C341.795 229.91 320.863 223.475 299.606 231.19C266.817 243.091 232.409 260.651 207.101 279.409C194.418 288.809 184.562 298.114 178.277 306.701C171.869 315.455 170.295 321.874 170.879 326.192C171.811 333.092 175.544 343.434 182.091 355.092C188.527 366.55 197.165 378.357 206.998 388.218C227.691 408.971 248.363 416.562 265.135 407.595C272.339 403.743 279.319 396.488 285.79 385.897C292.205 375.395 297.608 362.449 302.027 348.458C310.873 320.451 315.251 289.955 316.53 270.61C317.022 263.17 323.452 257.538 330.891 258.03C338.33 258.522 343.963 264.951 343.471 272.39C342.084 293.378 337.41 326.082 327.773 356.591C322.951 371.858 316.754 387.001 308.83 399.972C300.961 412.853 290.861 424.456 277.866 431.405C244.138 449.437 210.311 429.779 187.879 407.282C176.149 395.518 166.068 381.699 158.55 368.314C151.145 355.128 145.689 341.407 144.122 329.808C142.205 315.626 148.133 302.169 156.49 290.752C164.97 279.167 177.145 268.003 191.024 257.716C218.841 237.099 255.684 218.409 290.394 205.81ZM394.5 381C410.24 381 423 393.76 423 409.5C423 425.24 410.24 438 394.5 438C378.76 438 366 425.24 366 409.5C366 393.76 378.76 381 394.5 381ZM625.5 381C641.24 381 654 393.76 654 409.5C654 425.24 641.24 438 625.5 438C609.76 438 597 425.24 597 409.5C597 393.76 609.76 381 625.5 381Z" fill="#2E2A26"></path>
</svg>