<svg xmlns="http://www.w3.org/2000/svg" viewBox="0 0 24 24" role="img" fill="none" stroke="#111111" stroke-width="2" stroke-linecap="round" stroke-linejoin="round">
  <path d="M 13.13 4.89 L 14.24 2.67 L 17.02 3.81 L 16.23 6.18 L 17.82 7.77 L 20.19 6.98 L 21.33 9.76 L 19.11 10.87 L 19.11 13.13 L 21.33 14.24 L 20.19 17.02 L 17.82 16.23 L 16.23 17.82 L 17.02 20.19 L 14.24 21.33 L 13.13 19.11 L 10.87 19.11 L 9.76 21.33 L 6.98 20.19 L 7.77 17.82 L 6.18 16.23 L 3.81 17.02 L 2.67 14.24 L 4.89 13.13 L 4.89 10.87 L 2.67 9.76 L 3.81 6.98 L 6.18 7.77 L 7.77 6.18 L 6.98 3.81 L 9.76 2.67 L 10.87 4.89 Z"></path>
  <circle cx="12" cy="12" r="2.9"></circle>
</svg>