<svg xmlns="http://www.w3.org/2000/svg" viewBox="0 0 192 192" role="img" fill="none" stroke="#111111" stroke-width="16" stroke-linecap="round" stroke-linejoin="round">
  <path d="M 105.04 39.12 L 113.92 21.36 L 136.16 30.48 L 129.84 49.44 L 142.56 62.16 L 161.52 55.84 L 170.64 78.08 L 152.88 86.96 L 152.88 105.04 L 170.64 113.92 L 161.52 136.16 L 142.56 129.84 L 129.84 142.56 L 136.16 161.52 L 113.92 170.64 L 105.04 152.88 L 86.96 152.88 L 78.08 170.64 L 55.84 161.52 L 62.16 142.56 L 49.44 129.84 L 30.48 136.16 L 21.36 113.92 L 39.12 105.04 L 39.12 86.96 L 21.36 78.08 L 30.48 55.84 L 49.44 62.16 L 62.16 49.44 L 55.84 30.48 L 78.08 21.36 L 86.96 39.12 Z"></path>
  <circle cx="96" cy="96" r="23.2"></circle>
</svg>