<svg xmlns="http://www.w3.org/2000/svg" viewBox="74 -11 540 540" role="img">
  <path d="M 181 397 L 174 390 L 163 391 L 141 397 L 115 409 L 110 414 L 110 422 L 115 427 L 118 428 L 124 427 L 130 423 L 146 416 L 166 410 L 175 409 L 180 404 Z M 509 396 L 509 401 L 514 407 L 526 409 L 548 416 L 566 425 L 574 425 L 579 419 L 579 412 L 575 407 L 563 401 L 544 394 L 524 389 L 515 389 L 511 392 Z M 478 363 L 471 368 L 469 374 L 470 379 L 474 384 L 478 386 L 484 386 L 491 381 L 493 376 L 492 369 L 487 364 Z M 207 363 L 201 367 L 199 371 L 199 378 L 201 382 L 205 385 L 213 386 L 220 381 L 222 377 L 222 372 L 221 369 L 216 364 Z M 516 360 L 518 366 L 523 370 L 532 370 L 533 369 L 551 368 L 552 367 L 570 367 L 571 368 L 592 369 L 597 365 L 598 356 L 594 351 L 587 349 L 547 348 L 546 349 L 523 351 L 518 355 Z M 90 359 L 92 366 L 99 370 L 109 369 L 110 368 L 121 368 L 122 367 L 138 367 L 139 368 L 150 368 L 158 370 L 167 370 L 173 365 L 174 362 L 173 356 L 169 352 L 155 349 L 147 349 L 146 348 L 116 348 L 115 349 L 99 350 L 94 352 Z M 276 372 L 276 378 L 280 386 L 289 396 L 300 402 L 313 405 L 330 402 L 341 396 L 346 391 L 356 399 L 369 404 L 380 405 L 390 403 L 403 396 L 410 389 L 416 379 L 415 369 L 409 365 L 404 365 L 398 370 L 395 377 L 386 384 L 372 385 L 365 382 L 359 376 L 357 372 L 357 367 L 361 364 L 365 358 L 366 346 L 362 340 L 354 336 L 340 336 L 333 338 L 328 342 L 325 349 L 326 355 L 329 361 L 336 368 L 336 371 L 332 378 L 323 384 L 309 385 L 304 383 L 298 378 L 294 369 L 288 365 L 283 365 L 279 367 Z M 546 90 L 532 95 L 515 104 L 499 114 L 471 135 L 456 148 L 429 175 L 427 178 L 427 186 L 431 191 L 435 193 L 442 192 L 471 163 L 499 140 L 528 121 L 542 114 L 549 112 L 552 119 L 555 135 L 555 144 L 556 145 L 556 186 L 555 187 L 555 198 L 554 199 L 554 206 L 553 207 L 550 228 L 544 250 L 539 263 L 539 269 L 548 293 L 551 306 L 551 311 L 555 317 L 559 319 L 564 319 L 567 318 L 571 314 L 572 311 L 571 299 L 568 287 L 563 274 L 563 271 L 561 268 L 561 265 L 565 255 L 570 235 L 573 214 L 574 213 L 574 207 L 575 206 L 576 188 L 577 187 L 577 144 L 576 143 L 576 133 L 575 132 L 573 115 L 570 104 L 567 98 L 561 92 L 557 90 Z M 151 90 L 137 91 L 129 98 L 124 109 L 119 135 L 119 145 L 118 146 L 119 201 L 120 202 L 122 223 L 126 243 L 128 248 L 130 260 L 132 264 L 132 268 L 123 293 L 120 310 L 122 315 L 128 319 L 134 319 L 138 317 L 141 313 L 146 290 L 154 270 L 154 263 L 148 244 L 144 226 L 142 208 L 141 207 L 141 199 L 140 198 L 140 189 L 139 188 L 140 138 L 144 117 L 147 112 L 155 114 L 169 121 L 204 144 L 227 163 L 255 191 L 259 193 L 266 192 L 271 187 L 272 184 L 271 177 L 268 173 L 249 154 L 221 130 L 184 105 L 165 95 Z" fill="#111111" fill-rule="evenodd"></path>
  <circle cx="238" cy="312" r="20" fill="#111111"></circle>
  <circle cx="454" cy="312" r="20" fill="#111111"></circle>
    <path d="M 454,344 C 473,368 470,394 454,394 C 438,394 435,368 454,344 Z" fill="#111111"></path>
</svg>