<svg xmlns="http://www.w3.org/2000/svg" width="1024" height="1024" viewBox="0 0 1024 1024" role="img" aria-label="dog face sick">
  <title>dog face sick</title>
  <g fill="none" stroke="#111111" stroke-width="18" stroke-linecap="round" stroke-linejoin="round">
    <!-- left ear: same silhouette in every icon -->
    <path d="M423 321 C394 286 375 271 349 276 C327 280 297 298 270 317 C245 335 243 358 259 385 C274 411 303 429 325 421 C351 411 363 365 369 323"/>
    <path d="M369 323 C363 359 353 392 337 410"/>
    <!-- right ear: same silhouette in every icon -->
    <path d="M569 321 C598 286 617 271 643 276 C665 280 695 298 722 317 C747 335 749 358 733 385 C718 411 689 429 667 421 C641 411 629 365 623 323"/>
    <path d="M623 323 C629 359 639 392 655 410"/>
  </g>
  <g fill="none" stroke="#111111" stroke-width="18" stroke-linecap="round" stroke-linejoin="round">
    <path d="M393 399 L429 435"/>
    <path d="M429 399 L393 435"/>
    <path d="M561 399 L597 435"/>
    <path d="M597 399 L561 435"/>
    <path d="M641 371 C633 385 634 397 644 403 C655 396 654 384 641 371 Z"/>
    <ellipse cx="496" cy="443" rx="14" ry="10" fill="#111111" stroke="none"/>
    <path d="M496 452 C496 469 480 476 465 465"/>
    <path d="M496 452 C496 469 512 476 527 465"/>
  </g>
</svg>
