<svg xmlns="http://www.w3.org/2000/svg" width="1024" height="1024" viewBox="0 0 1024 1024" role="img" aria-label="dog face sleepy">
  <title>dog face sleepy</title>
  <g fill="none" stroke="#111111" stroke-width="18" stroke-linecap="round" stroke-linejoin="round">
    <!-- left ear: same silhouette in every icon -->
    <path d="M423 321 C394 286 375 271 349 276 C327 280 297 298 270 317 C245 335 243 358 259 385 C274 411 303 429 325 421 C351 411 363 365 369 323"/>
    <path d="M369 323 C363 359 353 392 337 410"/>
    <!-- right ear: same silhouette in every icon -->
    <path d="M569 321 C598 286 617 271 643 276 C665 280 695 298 722 317 C747 335 749 358 733 385 C718 411 689 429 667 421 C641 411 629 365 623 323"/>
    <path d="M623 323 C629 359 639 392 655 410"/>
  </g>
  <g fill="none" stroke="#111111" stroke-width="18" stroke-linecap="round" stroke-linejoin="round">
    <path d="M389 419 C405 430 425 430 441 419"/>
    <path d="M552 419 C568 430 588 430 604 419"/>
    <ellipse cx="496" cy="443" rx="14" ry="10" fill="#111111" stroke="none"/>
    <path d="M489 463 C506 471 506 486 489 494"/>
    <path d="M604 349 L632 349 L606 377 L635 377"/>
    <path d="M642 325 L669 325 L643 352 L672 352"/>
  </g>
</svg>
