<svg xmlns="http://www.w3.org/2000/svg" width="1024" height="1024" viewBox="0 0 1024 1024" role="img" aria-label="dog face sad">
  <title>dog face sad</title>
  <g fill="none" stroke="#111111" stroke-width="18" stroke-linecap="round" stroke-linejoin="round">
    <!-- left ear: same silhouette in every icon -->
    <path d="M423 321 C394 286 375 271 349 276 C327 280 297 298 270 317 C245 335 243 358 259 385 C274 411 303 429 325 421 C351 411 363 365 369 323"/>
    <path d="M369 323 C363 359 353 392 337 410"/>
    <!-- right ear: same silhouette in every icon -->
    <path d="M569 321 C598 286 617 271 643 276 C665 280 695 298 722 317 C747 335 749 358 733 385 C718 411 689 429 667 421 C641 411 629 365 623 323"/>
    <path d="M623 323 C629 359 639 392 655 410"/>
  </g>
  <g fill="none" stroke="#111111" stroke-width="18" stroke-linecap="round" stroke-linejoin="round">
    <path d="M389 397 C404 409 425 411 440 400"/>
    <path d="M552 400 C567 411 588 409 603 397"/>
    <path d="M417 430 C408 444 409 456 419 462 C430 455 429 443 417 430 Z" fill="none"/>
    <path d="M576 430 C567 444 568 456 578 462 C589 455 588 443 576 430 Z" fill="none"/>
    <ellipse cx="496" cy="443" rx="14" ry="10" fill="#111111" stroke="none"/>
    <path d="M471 474 C481 456 511 456 521 474"/>
  </g>
</svg>
